<svg id="svg" version="1.1" xmlns="http://www.w3.org/2000/svg" xmlns:xlink="http://www.w3.org/1999/xlink" width="400" height="395.0413223140496" viewBox="0, 0, 400,395.0413223140496"><g id="svgg"><path id="path0" d="M93.929 4.272 C 92.420 4.368,91.966 4.559,91.808 5.162 C 91.630 5.843,91.242 5.929,88.326 5.929 C 84.706 5.929,83.794 6.136,83.794 6.959 C 83.794 7.373,83.158 7.510,81.225 7.510 C 78.920 7.510,78.656 7.591,78.656 8.300 C 78.656 9.048,77.016 9.400,74.823 9.125 C 74.563 9.092,74.156 9.427,73.920 9.869 C 73.599 10.469,73.094 10.672,71.923 10.672 C 70.539 10.672,70.356 10.781,70.356 11.605 C 70.356 12.426,70.192 12.525,68.992 12.430 C 67.591 12.319,66.518 13.060,66.985 13.817 C 67.148 14.080,66.589 14.229,65.438 14.229 C 63.900 14.229,63.636 14.345,63.636 15.020 C 63.636 15.679,63.373 15.810,62.055 15.810 C 60.738 15.810,60.474 15.942,60.474 16.601 C 60.474 17.173,60.211 17.391,59.518 17.391 C 58.172 17.391,57.312 17.782,57.312 18.394 C 57.312 18.682,56.912 18.974,56.423 19.044 C 55.867 19.123,55.488 19.487,55.413 20.017 C 55.326 20.629,55.085 20.809,54.546 20.668 C 54.080 20.546,53.412 20.860,52.771 21.501 C 52.206 22.067,51.484 22.530,51.168 22.530 C 50.852 22.530,50.593 22.873,50.593 23.293 C 50.593 23.783,50.275 24.101,49.704 24.182 C 49.110 24.266,48.853 24.538,48.930 25.000 C 49.016 25.508,48.779 25.692,48.041 25.692 C 47.344 25.692,47.036 25.906,47.036 26.388 C 47.036 26.772,46.713 27.261,46.320 27.475 C 44.212 28.624,42.688 29.781,42.688 30.230 C 42.688 30.509,42.338 30.829,41.910 30.941 C 41.482 31.053,40.827 31.785,40.453 32.568 C 40.080 33.351,39.533 33.992,39.238 33.992 C 38.942 33.992,38.753 34.303,38.817 34.684 C 38.894 35.146,38.637 35.417,38.043 35.502 C 37.472 35.583,37.154 35.901,37.154 36.391 C 37.154 36.891,36.881 37.154,36.364 37.154 C 35.837 37.154,35.573 37.418,35.573 37.945 C 35.573 38.379,35.318 38.735,35.007 38.735 C 34.695 38.735,34.314 39.135,34.160 39.625 C 34.005 40.114,33.548 40.746,33.145 41.030 C 32.720 41.329,32.411 42.025,32.411 42.683 C 32.411 43.560,32.208 43.847,31.522 43.945 C 30.966 44.024,30.652 44.326,30.685 44.751 C 30.714 45.125,30.409 45.535,30.007 45.662 C 29.557 45.805,29.175 46.436,29.012 47.306 C 28.842 48.209,28.481 48.788,28.010 48.911 C 27.450 49.058,27.273 49.474,27.273 50.639 C 27.273 51.910,27.137 52.174,26.482 52.174 C 25.868 52.174,25.692 52.437,25.692 53.356 C 25.692 54.111,25.406 54.717,24.901 55.032 C 24.312 55.401,24.111 55.954,24.111 57.210 C 24.111 58.610,23.982 58.893,23.347 58.893 C 22.484 58.893,21.960 60.092,22.323 61.235 C 22.507 61.817,22.351 62.026,21.658 62.124 C 20.868 62.236,20.755 62.470,20.784 63.933 C 20.807 65.100,20.653 65.613,20.280 65.613 C 19.613 65.613,18.972 67.228,18.972 68.910 C 18.972 69.691,18.668 70.441,18.182 70.857 C 17.531 71.414,17.391 72.023,17.391 74.304 C 17.391 76.812,17.316 77.075,16.601 77.075 C 15.872 77.075,15.810 77.339,15.810 80.435 C 15.810 83.531,15.748 83.794,15.020 83.794 C 14.270 83.794,14.229 84.058,14.229 88.915 C 14.229 93.737,14.176 94.088,13.317 94.948 L 12.404 95.860 12.436 113.049 C 12.467 130.046,12.546 131.225,13.660 131.225 C 14.125 131.225,14.229 132.132,14.229 136.203 C 14.229 140.848,14.282 141.195,15.020 141.387 C 15.731 141.573,15.810 141.927,15.810 144.908 C 15.810 147.694,15.936 148.347,16.601 149.012 C 17.216 149.627,17.391 150.329,17.391 152.174 C 17.391 154.282,17.479 154.545,18.182 154.545 C 18.885 154.545,18.972 154.809,18.972 156.927 C 18.972 159.063,19.068 159.344,19.902 159.662 C 20.651 159.946,20.815 160.271,20.745 161.332 C 20.631 163.059,21.162 164.427,21.947 164.427 C 22.293 164.427,22.478 164.586,22.357 164.782 C 21.928 165.476,22.627 167.567,23.367 167.801 C 23.929 167.980,24.111 168.417,24.111 169.592 C 24.111 170.883,24.245 171.146,24.901 171.146 C 25.560 171.146,25.692 171.410,25.692 172.727 C 25.692 174.045,25.823 174.308,26.482 174.308 C 27.144 174.308,27.273 174.572,27.273 175.926 C 27.273 177.212,27.435 177.587,28.063 177.751 C 28.498 177.865,28.854 178.265,28.854 178.641 C 28.854 179.411,30.169 180.767,30.548 180.388 C 30.683 180.252,30.758 180.652,30.713 181.276 C 30.649 182.181,30.812 182.436,31.522 182.537 C 32.156 182.627,32.411 182.930,32.411 183.592 C 32.411 184.930,32.808 185.771,33.441 185.771 C 33.765 185.771,33.992 186.178,33.992 186.759 C 33.992 187.484,34.203 187.747,34.783 187.747 C 35.310 187.747,35.573 188.011,35.573 188.538 C 35.573 189.049,35.837 189.328,36.320 189.328 C 36.862 189.328,37.138 189.712,37.330 190.732 C 37.474 191.505,37.850 192.235,38.164 192.356 C 38.478 192.476,38.735 192.827,38.735 193.135 C 38.735 193.443,39.180 193.865,39.723 194.071 C 40.328 194.301,40.711 194.757,40.711 195.247 C 40.711 195.784,40.972 196.047,41.502 196.047 C 42.029 196.047,42.292 196.311,42.292 196.838 C 42.292 197.365,42.556 197.628,43.083 197.628 C 43.610 197.628,43.874 197.892,43.874 198.419 C 43.874 198.946,44.137 199.209,44.664 199.209 C 45.191 199.209,45.455 199.473,45.455 200.000 C 45.455 200.518,45.718 200.791,46.218 200.791 C 46.703 200.791,47.027 201.108,47.107 201.664 C 47.176 202.144,47.589 202.633,48.024 202.751 C 48.458 202.868,48.814 203.231,48.814 203.557 C 48.814 203.883,49.214 204.207,49.704 204.277 C 50.275 204.358,50.593 204.675,50.593 205.166 C 50.593 205.665,50.866 205.929,51.383 205.929 C 51.910 205.929,52.174 206.192,52.174 206.719 C 52.174 207.246,52.437 207.510,52.964 207.510 C 53.491 207.510,53.755 207.773,53.755 208.300 C 53.755 208.818,54.018 209.091,54.519 209.091 C 54.939 209.091,55.396 209.447,55.534 209.881 C 55.718 210.463,56.132 210.672,57.098 210.672 C 58.170 210.672,58.458 210.854,58.660 211.660 C 58.820 212.298,59.186 212.648,59.691 212.648 C 60.211 212.648,60.474 212.914,60.474 213.439 C 60.474 213.949,60.738 214.229,61.219 214.229 C 61.631 214.229,62.055 214.582,62.170 215.020 C 62.328 215.625,62.709 215.810,63.797 215.810 C 64.954 215.810,65.217 215.957,65.217 216.601 C 65.217 217.119,65.481 217.391,65.981 217.391 C 66.401 217.391,66.858 217.747,66.996 218.182 C 67.134 218.617,67.582 218.972,67.990 218.972 C 68.399 218.972,69.214 219.417,69.800 219.960 C 70.387 220.504,71.087 220.949,71.355 220.949 C 71.624 220.949,71.938 221.304,72.051 221.739 C 72.211 222.349,72.590 222.530,73.715 222.530 C 74.840 222.530,75.220 222.710,75.380 223.320 C 75.493 223.755,75.901 224.111,76.285 224.111 C 76.669 224.111,77.076 224.466,77.190 224.901 C 77.348 225.507,77.729 225.692,78.817 225.692 C 79.974 225.692,80.237 225.838,80.237 226.482 C 80.237 227.141,80.501 227.273,81.818 227.273 C 83.136 227.273,83.399 227.404,83.399 228.063 C 83.399 228.633,83.663 228.854,84.341 228.854 C 84.940 228.854,85.356 229.132,85.483 229.618 C 85.613 230.116,86.168 230.473,87.074 230.643 C 87.971 230.812,88.535 231.172,88.662 231.658 C 88.808 232.216,89.214 232.411,90.233 232.411 C 91.275 232.411,91.657 232.602,91.814 233.202 C 91.978 233.830,92.353 233.992,93.639 233.992 C 94.993 233.992,95.257 234.121,95.257 234.783 C 95.257 235.441,95.520 235.573,96.838 235.573 C 98.155 235.573,98.419 235.705,98.419 236.364 C 98.419 237.020,98.682 237.154,99.973 237.154 C 101.283 237.154,101.546 237.293,101.652 238.043 C 101.757 238.783,102.062 238.953,103.458 239.054 C 104.817 239.153,105.138 239.323,105.138 239.944 C 105.138 240.533,105.414 240.711,106.321 240.711 C 107.075 240.711,107.682 240.998,107.997 241.502 C 108.268 241.937,108.797 242.292,109.172 242.292 C 109.547 242.292,110.044 242.648,110.277 243.083 C 110.575 243.640,111.104 243.874,112.069 243.874 C 113.175 243.874,113.439 244.026,113.439 244.664 C 113.439 245.320,113.702 245.455,114.992 245.455 C 116.302 245.455,116.566 245.594,116.672 246.344 C 116.742 246.833,116.976 247.233,117.194 247.233 C 117.411 247.233,117.989 247.633,118.478 248.123 C 118.990 248.634,119.852 249.012,120.509 249.012 C 121.354 249.012,121.637 249.192,121.596 249.703 C 121.562 250.141,121.868 250.441,122.431 250.521 C 123.002 250.603,123.320 250.921,123.320 251.411 C 123.320 251.961,123.596 252.174,124.308 252.174 C 124.909 252.174,125.296 252.399,125.296 252.749 C 125.296 253.093,125.852 253.428,126.680 253.583 C 127.681 253.771,128.063 254.049,128.063 254.589 C 128.063 255.072,128.342 255.336,128.854 255.336 C 129.564 255.336,129.831 255.750,129.688 256.629 C 129.661 256.797,130.084 257.104,130.630 257.311 C 131.175 257.518,131.621 257.959,131.621 258.291 C 131.621 258.630,131.966 258.893,132.411 258.893 C 132.938 258.893,133.202 259.157,133.202 259.684 C 133.202 260.211,133.465 260.474,133.992 260.474 C 134.483 260.474,134.783 260.738,134.783 261.170 C 134.783 261.552,135.138 262.087,135.573 262.359 C 136.066 262.667,136.364 263.281,136.364 263.989 C 136.364 264.793,136.595 265.186,137.154 265.332 C 137.627 265.456,137.945 265.871,137.945 266.366 C 137.945 266.821,138.332 267.581,138.806 268.055 C 139.605 268.854,139.802 269.434,139.888 271.245 C 139.908 271.662,140.235 271.937,140.711 271.937 C 141.413 271.937,141.502 272.200,141.502 274.282 C 141.502 276.279,141.619 276.664,142.292 276.877 C 143.016 277.107,143.083 277.476,143.083 281.220 C 143.083 285.637,143.261 286.561,144.113 286.561 C 145.123 286.561,144.890 297.301,143.861 298.233 C 143.419 298.632,143.084 299.238,143.116 299.579 C 143.450 303.144,143.038 306.719,142.292 306.719 C 141.606 306.719,141.502 306.983,141.502 308.724 C 141.502 310.648,140.910 311.858,139.968 311.858 C 139.745 311.858,139.633 312.410,139.719 313.086 C 139.804 313.761,139.766 314.206,139.633 314.073 C 139.209 313.649,137.945 315.111,137.945 316.025 C 137.945 316.623,137.722 316.891,137.253 316.853 C 136.824 316.819,136.516 317.121,136.440 317.647 C 136.374 318.114,135.973 318.587,135.551 318.697 C 135.128 318.808,134.783 319.161,134.783 319.482 C 134.783 319.803,134.427 320.159,133.992 320.273 C 133.557 320.386,133.202 320.763,133.202 321.109 C 133.202 321.476,132.871 321.739,132.411 321.739 C 131.899 321.739,131.621 322.003,131.621 322.487 C 131.621 322.952,131.252 323.327,130.646 323.479 C 130.014 323.638,129.748 323.922,129.889 324.288 C 130.052 324.713,129.687 324.883,128.408 324.976 C 127.106 325.070,126.662 325.283,126.498 325.889 C 126.336 326.489,125.950 326.680,124.901 326.680 C 123.767 326.680,123.495 326.840,123.391 327.569 L 123.265 328.458 111.633 328.458 C 100.264 328.458,100.000 328.441,100.000 327.668 C 100.000 326.834,99.930 326.807,97.431 326.660 C 96.561 326.609,95.648 326.548,95.402 326.525 C 95.155 326.501,94.861 326.126,94.747 325.692 C 94.590 325.092,94.208 324.901,93.166 324.901 C 92.111 324.901,91.742 324.712,91.579 324.086 C 91.462 323.638,91.129 323.303,90.841 323.343 C 89.434 323.533,88.613 323.257,88.423 322.530 C 88.299 322.057,87.884 321.739,87.389 321.739 C 86.825 321.739,86.561 321.487,86.561 320.949 C 86.561 320.480,86.298 320.158,85.915 320.158 C 85.222 320.158,83.674 318.678,83.273 317.632 C 83.139 317.282,82.769 316.996,82.451 316.996 C 82.133 316.996,81.816 316.596,81.747 316.107 C 81.667 315.544,81.367 315.238,80.929 315.272 C 80.448 315.310,80.237 315.040,80.237 314.383 C 80.237 313.724,80.014 313.439,79.497 313.439 C 78.939 313.439,78.695 313.049,78.504 311.858 C 78.308 310.628,78.077 310.277,77.466 310.277 C 76.809 310.277,76.680 310.010,76.680 308.659 C 76.680 307.373,76.517 306.998,75.889 306.834 C 75.281 306.675,75.099 306.295,75.099 305.187 C 75.099 304.176,74.864 303.601,74.308 303.254 C 73.650 302.843,73.518 302.332,73.518 300.198 C 73.518 298.063,73.386 297.553,72.727 297.141 C 72.048 296.717,71.937 296.220,71.937 293.595 C 71.937 290.946,71.832 290.486,71.146 290.119 C 70.387 289.712,70.356 289.291,70.356 279.415 L 70.356 269.134 69.386 268.164 L 68.415 267.194 36.825 267.194 C 12.029 267.194,5.149 267.300,4.836 267.688 C 3.579 269.244,3.867 281.337,5.192 282.662 C 5.862 283.332,5.929 284.118,5.929 291.301 C 5.929 298.775,5.972 299.230,6.719 299.696 C 7.426 300.138,7.510 300.618,7.510 304.245 C 7.510 308.037,7.561 308.300,8.300 308.300 C 9.020 308.300,9.094 308.574,9.121 311.364 C 9.159 315.181,9.286 315.872,10.057 316.436 C 10.490 316.752,10.672 317.557,10.672 319.152 C 10.672 321.085,10.788 321.448,11.462 321.625 C 12.327 321.851,12.349 321.917,12.409 324.506 C 12.445 326.035,12.576 326.302,13.340 326.411 C 14.157 326.527,14.229 326.744,14.229 329.079 C 14.229 331.357,14.311 331.621,15.020 331.621 C 15.705 331.621,15.810 331.884,15.810 333.593 C 15.810 335.138,15.982 335.674,16.601 336.060 C 17.169 336.415,17.391 336.982,17.391 338.077 C 17.391 339.253,17.566 339.645,18.160 339.801 C 18.713 339.945,18.963 340.408,19.050 341.444 C 19.143 342.567,19.356 342.912,20.013 343.006 C 20.726 343.107,20.828 343.331,20.676 344.459 C 20.535 345.505,20.669 345.884,21.299 346.221 C 21.756 346.465,22.210 347.237,22.356 348.015 C 22.515 348.860,22.898 349.471,23.362 349.618 C 23.774 349.749,24.111 350.199,24.111 350.620 C 24.111 351.120,24.383 351.383,24.901 351.383 C 25.560 351.383,25.692 351.647,25.692 352.964 C 25.692 354.282,25.823 354.545,26.482 354.545 C 27.052 354.545,27.273 354.809,27.273 355.487 C 27.273 356.085,27.551 356.502,28.035 356.629 C 28.557 356.765,28.837 357.242,28.924 358.142 C 29.013 359.056,29.291 359.520,29.842 359.668 C 30.277 359.786,30.632 360.148,30.632 360.474 C 30.632 360.800,31.033 361.124,31.522 361.193 C 32.093 361.275,32.411 361.592,32.411 362.083 C 32.411 362.582,32.684 362.846,33.202 362.846 C 33.774 362.846,33.992 363.109,33.992 363.802 C 33.992 365.166,34.385 366.008,35.023 366.008 C 35.325 366.008,35.573 366.352,35.573 366.772 C 35.573 367.192,35.929 367.649,36.364 367.787 C 36.798 367.925,37.154 368.309,37.154 368.641 C 37.154 368.973,37.493 369.333,37.908 369.441 C 38.323 369.550,38.751 369.978,38.859 370.392 C 38.974 370.831,39.402 371.146,39.884 371.146 C 40.431 371.146,40.711 371.399,40.711 371.891 C 40.711 372.303,41.064 372.727,41.502 372.842 C 41.937 372.955,42.292 373.332,42.292 373.678 C 42.292 374.025,42.583 374.308,42.939 374.308 C 43.294 374.308,43.997 374.753,44.501 375.296 C 45.005 375.840,45.781 376.285,46.226 376.285 C 46.772 376.285,47.036 376.542,47.036 377.075 C 47.036 377.645,47.299 377.866,47.980 377.866 C 48.636 377.866,48.907 378.076,48.869 378.557 C 48.834 378.995,49.140 379.295,49.704 379.375 C 50.275 379.456,50.593 379.774,50.593 380.265 C 50.593 380.848,50.871 381.028,51.770 381.028 C 52.588 381.028,53.143 381.328,53.594 382.016 C 53.950 382.559,54.467 383.004,54.742 383.004 C 55.018 383.004,55.337 383.360,55.450 383.794 C 55.608 384.396,55.990 384.585,57.051 384.585 C 58.098 384.585,58.507 384.782,58.696 385.375 C 58.834 385.810,59.270 386.166,59.664 386.166 C 60.059 386.166,60.475 386.522,60.589 386.957 C 60.752 387.580,61.128 387.747,62.370 387.747 C 63.626 387.747,63.933 387.887,63.889 388.439 C 63.847 388.968,64.191 389.160,65.360 389.256 C 66.466 389.346,66.941 389.589,67.084 390.135 C 67.213 390.629,67.778 390.983,68.719 391.159 C 69.511 391.307,70.354 391.694,70.593 392.020 C 70.855 392.378,71.916 392.687,73.267 392.799 C 75.053 392.947,75.485 393.114,75.401 393.627 C 75.315 394.152,75.745 394.290,77.767 394.386 C 79.125 394.451,80.237 394.674,80.237 394.881 C 80.237 395.116,92.894 395.257,114.032 395.257 C 136.298 395.257,147.826 395.122,147.826 394.862 C 147.826 394.644,148.493 394.464,149.308 394.461 C 151.372 394.453,152.569 394.076,152.569 393.432 C 152.569 393.056,153.073 392.885,154.187 392.885 C 155.458 392.885,155.848 392.720,156.006 392.116 C 156.151 391.564,156.614 391.313,157.649 391.227 C 158.698 391.140,159.197 390.864,159.481 390.217 C 159.786 389.522,160.195 389.328,161.359 389.328 C 162.582 389.328,162.846 389.188,162.846 388.538 C 162.846 387.923,163.109 387.747,164.028 387.747 C 164.783 387.747,165.389 387.461,165.704 386.957 C 165.976 386.522,166.511 386.166,166.893 386.166 C 167.325 386.166,167.589 385.866,167.589 385.375 C 167.589 384.796,167.852 384.585,168.577 384.585 C 169.121 384.585,169.903 384.247,170.317 383.833 C 170.730 383.420,171.441 382.964,171.898 382.819 C 172.363 382.671,172.727 382.220,172.727 381.792 C 172.727 381.291,173.000 381.028,173.518 381.028 C 174.045 381.028,174.308 380.764,174.308 380.237 C 174.308 379.710,174.572 379.447,175.099 379.447 C 175.626 379.447,175.889 379.183,175.889 378.656 C 175.889 378.076,176.153 377.866,176.877 377.866 C 177.602 377.866,177.866 377.655,177.866 377.075 C 177.866 376.548,178.129 376.285,178.656 376.285 C 179.183 376.285,179.447 376.021,179.447 375.494 C 179.447 374.967,179.710 374.704,180.237 374.704 C 180.764 374.704,181.028 374.440,181.028 373.913 C 181.028 373.386,181.291 373.123,181.818 373.123 C 182.398 373.123,182.609 372.859,182.609 372.134 C 182.609 371.410,182.819 371.146,183.399 371.146 C 183.926 371.146,184.190 370.883,184.190 370.356 C 184.190 369.829,184.453 369.565,184.980 369.565 C 185.507 369.565,185.771 369.302,185.771 368.775 C 185.771 368.257,186.034 367.984,186.535 367.984 C 186.963 367.984,187.414 367.620,187.562 367.155 C 187.707 366.698,188.163 365.987,188.577 365.574 C 188.990 365.160,189.328 364.377,189.328 363.834 C 189.328 363.109,189.539 362.846,190.119 362.846 C 190.629 362.846,190.909 362.582,190.909 362.101 C 190.909 361.689,191.262 361.265,191.700 361.150 C 192.305 360.992,192.490 360.611,192.490 359.523 C 192.490 358.366,192.637 358.103,193.281 358.103 C 193.952 358.103,194.071 357.839,194.071 356.352 C 194.071 354.837,194.191 354.583,194.960 354.474 C 195.519 354.395,195.871 354.054,195.907 353.557 C 195.938 353.123,195.982 352.456,196.005 352.075 C 196.031 351.661,196.365 351.383,196.838 351.383 C 197.493 351.383,197.628 351.120,197.628 349.848 C 197.628 348.646,197.800 348.269,198.419 348.107 C 199.042 347.944,199.209 347.568,199.209 346.328 C 199.209 345.089,199.377 344.713,200.000 344.550 C 200.672 344.374,200.791 344.010,200.791 342.132 C 200.791 340.184,200.885 339.921,201.581 339.921 C 202.290 339.921,202.372 339.657,202.372 337.352 C 202.372 335.046,202.453 334.783,203.162 334.783 C 203.885 334.783,203.953 334.519,203.953 331.714 C 203.953 328.911,204.030 328.612,204.842 328.256 C 205.640 327.905,205.743 327.546,205.848 324.734 C 205.937 322.333,206.122 321.488,206.638 321.111 C 207.213 320.691,207.331 319.713,207.439 314.460 C 207.537 309.679,207.683 308.300,208.088 308.300 C 209.464 308.300,209.701 274.394,208.328 274.035 C 207.622 273.850,207.555 273.373,207.438 267.715 C 207.331 262.516,207.212 261.521,206.644 261.107 C 206.133 260.734,205.957 259.923,205.900 257.681 C 205.858 256.065,205.717 254.565,205.586 254.348 C 205.350 253.955,205.282 253.722,205.188 252.964 C 205.161 252.747,204.872 252.569,204.545 252.569 C 204.079 252.569,203.953 252.020,203.953 250.000 C 203.953 247.694,203.871 247.431,203.162 247.431 C 202.453 247.431,202.372 247.167,202.372 244.862 C 202.372 242.819,202.209 242.130,201.581 241.502 C 201.059 240.979,200.791 240.184,200.791 239.157 C 200.791 237.950,200.614 237.547,200.000 237.352 C 199.335 237.141,199.209 236.754,199.209 234.917 C 199.209 233.065,199.089 232.701,198.419 232.526 C 197.820 232.369,197.628 231.986,197.628 230.945 C 197.628 229.903,197.437 229.520,196.838 229.364 C 196.285 229.219,196.047 228.824,196.047 228.049 C 196.047 226.427,195.664 225.692,194.819 225.692 C 194.210 225.692,194.071 225.398,194.071 224.111 C 194.071 222.793,193.939 222.530,193.281 222.530 C 192.622 222.530,192.490 222.266,192.490 220.949 C 192.490 219.631,192.358 219.368,191.700 219.368 C 191.120 219.368,190.909 219.104,190.909 218.379 C 190.909 217.655,190.698 217.391,190.119 217.391 C 189.475 217.391,189.328 217.128,189.328 215.971 C 189.328 214.883,189.143 214.502,188.538 214.344 C 188.100 214.229,187.747 213.805,187.747 213.393 C 187.747 212.862,187.463 212.648,186.759 212.648 C 185.866 212.648,185.771 212.493,185.771 211.030 C 185.771 209.745,185.608 209.370,184.980 209.205 C 184.543 209.091,184.190 208.666,184.190 208.254 C 184.190 207.773,183.910 207.510,183.399 207.510 C 182.872 207.510,182.609 207.246,182.609 206.719 C 182.609 206.208,182.345 205.929,181.862 205.929 C 181.320 205.929,181.044 205.545,180.852 204.525 C 180.707 203.752,180.339 203.024,180.033 202.907 C 179.727 202.790,179.369 202.354,179.237 201.940 C 179.106 201.525,178.747 201.186,178.439 201.186 C 178.132 201.186,177.769 200.741,177.633 200.198 C 177.477 199.579,177.105 199.209,176.637 199.209 C 176.153 199.209,175.889 198.931,175.889 198.419 C 175.889 197.984,175.756 197.650,175.593 197.675 C 174.719 197.813,174.308 197.546,174.308 196.838 C 174.308 196.311,174.045 196.047,173.518 196.047 C 172.991 196.047,172.727 195.784,172.727 195.257 C 172.727 194.730,172.464 194.466,171.937 194.466 C 171.492 194.466,171.146 194.203,171.146 193.864 C 171.146 193.532,170.702 193.092,170.158 192.885 C 169.615 192.679,169.170 192.238,169.170 191.907 C 169.170 191.576,169.018 191.304,168.832 191.304 C 168.647 191.304,168.015 190.860,167.429 190.316 C 166.842 189.773,165.927 189.328,165.395 189.328 C 164.690 189.328,164.427 189.113,164.427 188.538 C 164.427 188.011,164.163 187.747,163.636 187.747 C 163.109 187.747,162.846 187.484,162.846 186.957 C 162.846 186.446,162.582 186.166,162.101 186.166 C 161.689 186.166,161.265 185.813,161.150 185.375 C 161.027 184.903,160.611 184.585,160.116 184.585 C 159.636 184.585,159.289 184.331,159.289 183.979 C 159.289 183.298,157.868 182.637,156.818 182.831 C 156.313 182.924,156.126 182.698,156.126 181.993 C 156.126 181.311,155.908 181.028,155.382 181.028 C 154.970 181.028,154.545 180.675,154.431 180.237 C 154.274 179.638,153.892 179.447,152.850 179.447 C 151.808 179.447,151.426 179.255,151.269 178.656 C 151.145 178.183,150.730 177.866,150.235 177.866 C 149.671 177.866,149.407 177.614,149.407 177.075 C 149.407 176.416,149.144 176.285,147.826 176.285 C 146.509 176.285,146.245 176.153,146.245 175.494 C 146.245 174.743,146.104 174.638,144.973 174.545 C 144.708 174.524,144.060 174.106,143.532 173.617 C 143.004 173.127,142.263 172.727,141.886 172.727 C 141.508 172.727,141.103 172.361,140.986 171.912 C 140.869 171.464,140.537 171.130,140.248 171.169 C 138.705 171.378,137.945 171.110,137.945 170.356 C 137.945 169.697,137.681 169.565,136.364 169.565 C 135.046 169.565,134.783 169.433,134.783 168.775 C 134.783 168.101,134.519 167.984,133.004 167.984 C 131.489 167.984,131.225 167.867,131.225 167.194 C 131.225 166.537,130.962 166.403,129.672 166.403 C 128.362 166.403,128.098 166.264,127.992 165.514 C 127.888 164.785,127.616 164.625,126.482 164.625 C 125.433 164.625,125.047 164.433,124.885 163.834 C 124.723 163.231,124.278 163.015,123.008 162.922 C 121.666 162.824,121.344 162.652,121.344 162.033 C 121.344 161.400,121.065 161.265,119.763 161.265 C 118.445 161.265,118.182 161.133,118.182 160.474 C 118.182 159.860,117.918 159.684,116.999 159.684 C 116.245 159.684,115.638 159.398,115.323 158.893 C 115.052 158.458,114.428 158.103,113.937 158.103 C 113.400 158.103,113.043 157.862,113.043 157.500 C 113.043 156.805,111.345 156.045,110.509 156.365 C 110.136 156.509,109.900 156.270,109.814 155.663 C 109.709 154.920,109.407 154.720,108.242 154.623 C 107.207 154.536,106.744 154.286,106.599 153.733 C 106.489 153.311,106.115 152.964,105.768 152.964 C 105.422 152.964,104.783 152.609,104.348 152.174 C 103.913 151.739,103.113 151.383,102.569 151.383 C 101.845 151.383,101.581 151.173,101.581 150.593 C 101.581 150.071,101.318 149.802,100.804 149.802 C 100.377 149.802,99.837 149.447,99.605 149.012 C 99.331 148.501,98.777 148.221,98.037 148.221 C 97.151 148.221,96.864 148.020,96.767 147.332 C 96.697 146.843,96.418 146.420,96.146 146.393 C 95.875 146.366,95.474 146.322,95.257 146.294 C 95.040 146.267,94.862 145.889,94.862 145.455 C 94.862 144.928,94.598 144.664,94.071 144.664 C 93.625 144.664,93.281 144.401,93.281 144.059 C 93.281 143.726,92.969 143.337,92.589 143.195 C 92.208 143.054,91.665 142.614,91.381 142.220 C 91.097 141.825,90.705 141.502,90.509 141.502 C 90.029 141.502,88.142 139.587,88.142 139.100 C 88.142 138.886,87.862 138.603,87.519 138.471 C 87.176 138.340,86.736 137.812,86.541 137.298 C 86.345 136.784,85.914 136.364,85.583 136.364 C 85.244 136.364,84.980 136.018,84.980 135.573 C 84.980 135.046,84.717 134.783,84.190 134.783 C 83.610 134.783,83.399 134.519,83.399 133.794 C 83.399 133.251,83.043 132.451,82.609 132.016 C 82.174 131.581,81.818 130.979,81.818 130.679 C 81.818 130.378,81.462 130.039,81.028 129.925 C 80.406 129.762,80.237 129.386,80.237 128.162 C 80.237 127.107,79.982 126.374,79.447 125.889 C 78.968 125.456,78.656 124.672,78.656 123.901 C 78.656 121.507,78.211 120.158,77.421 120.158 C 76.230 120.158,76.278 105.169,77.470 104.858 C 77.919 104.740,78.287 104.286,78.321 103.808 C 78.354 103.344,78.423 102.787,78.473 102.569 C 78.524 102.352,78.585 101.350,78.611 100.343 C 78.647 98.865,78.809 98.471,79.447 98.304 C 80.057 98.145,80.237 97.765,80.237 96.640 C 80.237 95.515,80.417 95.136,81.028 94.976 C 81.647 94.814,81.818 94.437,81.818 93.235 C 81.818 91.963,81.954 91.700,82.609 91.700 C 83.178 91.700,83.399 91.436,83.399 90.758 C 83.399 90.148,83.678 89.743,84.190 89.609 C 84.760 89.460,84.980 89.070,84.980 88.207 C 84.980 87.268,85.171 86.984,85.870 86.885 C 86.503 86.795,86.750 86.503,86.728 85.870 C 86.704 85.193,86.916 84.980,87.617 84.980 C 88.274 84.980,88.538 84.754,88.538 84.190 C 88.538 83.699,88.801 83.399,89.233 83.399 C 89.615 83.399,90.151 83.043,90.422 82.609 C 90.737 82.104,91.344 81.818,92.098 81.818 C 93.017 81.818,93.281 81.642,93.281 81.028 C 93.281 80.384,93.544 80.237,94.701 80.237 C 95.789 80.237,96.170 80.052,96.328 79.447 C 96.491 78.823,96.867 78.656,98.107 78.656 C 99.346 78.656,99.722 78.489,99.885 77.866 C 100.082 77.113,100.443 77.073,107.457 77.033 C 119.185 76.967,119.426 76.983,120.050 77.874 C 120.410 78.388,121.051 78.656,121.917 78.656 C 122.702 78.656,123.324 78.887,123.455 79.227 C 123.575 79.541,124.289 79.914,125.042 80.055 C 125.918 80.219,126.480 80.582,126.606 81.065 C 126.717 81.487,127.149 81.818,127.589 81.818 C 128.021 81.818,128.473 82.075,128.593 82.389 C 128.714 82.703,129.422 83.075,130.167 83.214 C 131.096 83.389,131.506 83.675,131.472 84.125 C 131.442 84.525,131.771 84.832,132.312 84.909 C 132.946 84.999,133.202 85.302,133.202 85.964 C 133.202 87.302,133.599 88.142,134.232 88.142 C 134.556 88.142,134.783 88.549,134.783 89.130 C 134.783 89.855,134.993 90.119,135.573 90.119 C 136.064 90.119,136.364 90.382,136.364 90.814 C 136.364 91.197,136.719 91.732,137.154 92.003 C 137.662 92.320,137.945 92.925,137.945 93.692 C 137.945 94.562,138.181 94.975,138.814 95.209 C 139.458 95.447,139.699 95.880,139.740 96.876 C 139.866 99.870,139.906 100.000,140.711 100.000 C 141.415 100.000,141.502 100.264,141.502 102.409 C 141.502 104.485,141.611 104.846,142.292 105.024 C 143.024 105.215,143.083 105.563,143.083 109.716 C 143.083 113.797,143.154 114.240,143.874 114.625 C 144.599 115.013,144.664 115.452,144.664 119.974 L 144.664 124.901 176.877 124.901 L 209.091 124.901 209.091 115.971 C 209.091 107.373,209.061 107.033,208.300 106.834 C 207.551 106.638,207.510 106.295,207.510 100.312 C 207.510 94.330,207.468 93.986,206.719 93.790 C 206.004 93.603,205.929 93.251,205.929 90.105 C 205.929 86.106,205.739 85.375,204.701 85.375 C 204.025 85.375,203.953 85.049,203.953 82.016 C 203.953 78.920,203.891 78.656,203.162 78.656 C 202.453 78.656,202.372 78.393,202.372 76.087 C 202.372 74.045,202.209 73.356,201.581 72.727 C 201.054 72.200,200.791 71.410,200.791 70.356 C 200.791 69.302,200.527 68.511,200.000 67.984 C 199.467 67.451,199.209 66.667,199.209 65.576 C 199.209 64.290,199.047 63.915,198.419 63.751 C 197.800 63.589,197.628 63.212,197.628 62.009 C 197.628 60.738,197.493 60.474,196.838 60.474 C 196.183 60.474,196.047 60.211,196.047 58.935 C 196.047 57.809,195.784 57.145,195.066 56.464 C 194.526 55.952,194.082 55.133,194.078 54.644 C 194.074 54.155,193.715 53.399,193.281 52.964 C 192.846 52.530,192.490 51.818,192.490 51.383 C 192.490 50.864,192.227 50.593,191.722 50.593 C 191.102 50.593,190.931 50.271,190.833 48.913 C 190.741 47.643,190.553 47.245,190.062 47.281 C 189.601 47.315,189.342 46.886,189.168 45.799 C 189.034 44.957,188.743 44.269,188.523 44.269 C 188.303 44.269,187.954 43.824,187.747 43.281 C 187.517 42.676,187.061 42.292,186.571 42.292 C 185.946 42.292,185.771 42.034,185.771 41.110 C 185.771 40.356,185.485 39.749,184.980 39.434 C 184.545 39.162,184.190 38.611,184.190 38.208 C 184.190 37.805,183.834 37.382,183.399 37.269 C 182.962 37.154,182.609 36.730,182.609 36.318 C 182.609 35.837,182.329 35.573,181.818 35.573 C 181.291 35.573,181.028 35.310,181.028 34.783 C 181.028 34.256,180.764 33.992,180.237 33.992 C 179.802 33.992,179.447 33.733,179.447 33.417 C 179.447 32.804,177.448 30.591,177.015 30.725 C 176.874 30.768,176.473 30.205,176.126 29.473 C 175.778 28.740,174.872 27.774,174.111 27.325 C 173.350 26.876,172.727 26.325,172.727 26.100 C 172.727 25.876,172.372 25.692,171.937 25.692 C 171.410 25.692,171.146 25.428,171.146 24.901 C 171.146 24.374,170.883 24.111,170.356 24.111 C 169.829 24.111,169.565 23.847,169.565 23.320 C 169.565 22.746,169.302 22.530,168.605 22.530 C 167.911 22.530,167.609 22.284,167.518 21.644 C 167.448 21.157,167.064 20.697,166.664 20.620 C 166.264 20.544,165.597 20.142,165.181 19.727 C 164.766 19.312,164.071 18.972,163.636 18.972 C 163.109 18.972,162.846 18.709,162.846 18.182 C 162.846 17.602,162.582 17.391,161.858 17.391 C 161.277 17.391,160.870 17.165,160.870 16.841 C 160.870 16.203,160.028 15.810,158.663 15.810 C 157.971 15.810,157.708 15.592,157.708 15.020 C 157.708 14.361,157.444 14.229,156.126 14.229 C 154.809 14.229,154.545 14.097,154.545 13.439 C 154.545 13.004,154.323 12.622,154.051 12.590 C 153.780 12.558,153.291 12.495,152.964 12.451 C 152.638 12.406,152.161 12.344,151.904 12.311 C 151.647 12.279,151.324 11.897,151.186 11.462 C 150.993 10.854,150.588 10.672,149.427 10.672 C 148.236 10.672,147.873 10.500,147.705 9.857 C 147.588 9.409,147.256 9.074,146.967 9.113 C 144.889 9.395,143.163 9.045,142.968 8.300 C 142.790 7.619,142.429 7.510,140.353 7.510 C 138.208 7.510,137.945 7.423,137.945 6.719 C 137.945 5.992,137.681 5.929,134.631 5.929 C 131.650 5.929,131.297 5.850,131.111 5.138 C 130.952 4.530,130.554 4.340,129.385 4.312 C 124.731 4.202,95.550 4.169,93.929 4.272 M356.241 9.881 C 356.087 10.471,355.702 10.672,354.724 10.672 C 353.760 10.672,353.347 10.881,353.162 11.462 C 353.024 11.897,352.701 12.273,352.444 12.299 C 352.187 12.324,351.798 12.385,351.581 12.436 C 351.364 12.486,350.875 12.555,350.494 12.588 C 350.086 12.624,349.802 12.972,349.802 13.439 C 349.802 14.101,349.539 14.229,348.184 14.229 C 346.899 14.229,346.524 14.392,346.360 15.020 C 346.198 15.639,345.820 15.810,344.618 15.810 C 343.347 15.810,343.083 15.946,343.083 16.601 C 343.083 17.245,342.819 17.391,341.663 17.391 C 340.575 17.391,340.194 17.576,340.035 18.182 C 339.890 18.739,339.496 18.972,338.704 18.972 C 338.076 18.972,337.244 19.334,336.817 19.792 C 336.122 20.537,335.410 20.835,334.118 20.918 C 333.860 20.935,333.537 21.304,333.399 21.739 C 333.237 22.251,332.801 22.530,332.163 22.530 C 331.615 22.530,331.286 22.703,331.420 22.920 C 331.564 23.153,331.385 23.205,330.980 23.049 C 330.484 22.859,330.359 22.947,330.520 23.368 C 330.683 23.792,330.414 23.974,329.531 24.041 C 328.855 24.093,328.078 24.478,327.773 24.913 C 327.441 25.388,326.774 25.692,326.065 25.692 C 325.176 25.692,324.901 25.873,324.901 26.459 C 324.901 27.080,324.579 27.251,323.221 27.349 C 321.905 27.444,321.553 27.620,321.596 28.162 C 321.640 28.710,321.337 28.854,320.141 28.854 C 318.977 28.854,318.573 29.035,318.379 29.644 C 318.125 30.446,317.970 30.513,316.206 30.590 C 315.498 30.620,315.182 30.885,315.091 31.522 C 314.981 32.293,314.730 32.411,313.187 32.411 C 311.589 32.411,311.435 32.491,311.660 33.202 C 311.886 33.913,311.731 33.992,310.106 33.992 C 308.564 33.992,308.300 34.107,308.300 34.783 C 308.300 35.441,308.037 35.573,306.719 35.573 C 305.417 35.573,305.138 35.709,305.138 36.341 C 305.138 36.960,304.817 37.132,303.474 37.230 C 302.200 37.323,301.760 37.538,301.597 38.146 C 301.450 38.695,301.078 38.924,300.398 38.887 C 298.975 38.810,298.419 39.113,298.419 39.963 C 298.419 40.573,298.126 40.711,296.838 40.711 C 295.520 40.711,295.257 40.843,295.257 41.502 C 295.257 42.164,294.993 42.292,293.639 42.292 C 292.353 42.292,291.978 42.455,291.814 43.083 C 291.657 43.682,291.275 43.874,290.233 43.874 C 289.219 43.874,288.808 44.069,288.664 44.619 C 288.532 45.122,287.980 45.443,286.969 45.604 C 285.942 45.769,285.406 46.085,285.269 46.609 C 285.145 47.085,284.791 47.329,284.333 47.256 C 283.360 47.100,282.213 47.717,282.213 48.396 C 282.213 48.722,281.932 48.864,281.507 48.753 C 281.098 48.646,280.340 48.995,279.708 49.581 C 279.107 50.137,278.281 50.593,277.872 50.593 C 277.463 50.593,277.015 50.949,276.877 51.383 C 276.683 51.997,276.279 52.174,275.072 52.174 C 273.781 52.174,273.518 52.308,273.518 52.964 C 273.518 53.623,273.254 53.755,271.937 53.755 C 270.635 53.755,270.356 53.890,270.356 54.523 C 270.356 55.143,270.034 55.314,268.676 55.412 C 267.242 55.516,267.000 55.659,267.024 56.392 C 267.049 57.158,266.890 57.232,265.553 57.071 C 264.210 56.909,264.027 56.995,263.802 57.892 C 263.587 58.749,263.329 58.893,262.012 58.893 C 260.738 58.893,260.474 59.029,260.474 59.684 C 260.474 60.294,260.211 60.474,259.321 60.474 C 257.769 60.474,256.917 60.839,256.917 61.505 C 256.917 61.873,256.447 62.055,255.497 62.055 C 254.409 62.055,254.028 62.240,253.869 62.846 C 253.713 63.445,253.330 63.636,252.288 63.636 C 251.247 63.636,250.864 63.828,250.707 64.427 C 250.572 64.946,250.168 65.217,249.533 65.217 C 246.818 65.217,247.036 62.086,247.036 101.105 L 247.036 136.173 247.873 136.696 C 248.473 137.071,248.831 137.098,249.138 136.791 C 249.373 136.556,250.508 136.364,251.660 136.364 C 253.444 136.364,253.755 136.254,253.755 135.623 C 253.755 135.021,254.135 134.847,255.798 134.687 C 257.046 134.567,258.023 134.240,258.312 133.846 C 258.574 133.488,259.332 133.202,260.020 133.202 C 260.830 133.202,261.429 132.928,261.752 132.411 C 262.023 131.976,262.633 131.621,263.106 131.621 C 264.487 131.621,265.217 131.196,265.217 130.392 C 265.217 129.769,265.514 129.644,266.996 129.644 C 268.511 129.644,268.775 129.527,268.775 128.854 C 268.775 128.169,269.038 128.063,270.748 128.063 C 272.293 128.063,272.828 127.892,273.214 127.273 C 273.566 126.710,274.136 126.482,275.194 126.482 C 276.416 126.482,276.680 126.342,276.680 125.692 C 276.680 125.030,276.943 124.901,278.298 124.901 C 279.583 124.901,279.958 124.739,280.123 124.111 C 280.284 123.495,280.662 123.320,281.836 123.320 C 282.966 123.320,283.533 123.077,284.109 122.345 C 284.530 121.809,284.980 121.475,285.107 121.602 C 285.629 122.124,288.060 121.308,288.259 120.544 C 288.421 119.926,288.803 119.763,290.082 119.763 C 291.436 119.763,291.700 119.634,291.700 118.972 C 291.700 118.314,291.963 118.182,293.281 118.182 C 294.598 118.182,294.862 118.050,294.862 117.391 C 294.862 116.742,295.127 116.600,296.344 116.595 C 298.408 116.588,299.605 116.210,299.605 115.567 C 299.605 115.190,300.109 115.020,301.223 115.020 C 302.480 115.020,302.885 114.852,303.037 114.268 C 303.145 113.855,303.662 113.435,304.186 113.335 L 305.138 113.153 305.138 254.205 L 305.138 395.257 336.364 395.257 L 367.589 395.257 367.589 202.174 L 367.589 9.091 362.018 9.091 C 356.780 9.091,356.435 9.138,356.241 9.881 " stroke="none" fill="#5cc4bc" fill-rule="evenodd"></path><path id="path1" d="M106.400 4.248 C 109.159 4.316,113.783 4.316,116.676 4.248 C 119.570 4.181,117.312 4.125,111.660 4.125 C 106.008 4.125,103.641 4.180,106.400 4.248 M12.361 99.605 C 12.361 100.583,12.438 100.983,12.532 100.494 C 12.626 100.005,12.626 99.205,12.532 98.715 C 12.438 98.226,12.361 98.626,12.361 99.605 M12.399 112.648 C 12.399 114.931,12.465 115.865,12.544 114.723 C 12.624 113.582,12.624 111.714,12.544 110.573 C 12.465 109.432,12.399 110.366,12.399 112.648 M12.353 125.494 C 12.357 126.364,12.438 126.673,12.533 126.181 C 12.627 125.689,12.623 124.978,12.525 124.600 C 12.426 124.222,12.348 124.625,12.353 125.494 " stroke="none" fill="#60c4bc" fill-rule="evenodd"></path><path id="path2" d="M106.400 4.248 C 109.159 4.316,113.783 4.316,116.676 4.248 C 119.570 4.181,117.312 4.125,111.660 4.125 C 106.008 4.125,103.641 4.180,106.400 4.248 M12.361 99.605 C 12.361 100.583,12.438 100.983,12.532 100.494 C 12.626 100.005,12.626 99.205,12.532 98.715 C 12.438 98.226,12.361 98.626,12.361 99.605 M12.399 112.648 C 12.399 114.931,12.465 115.865,12.544 114.723 C 12.624 113.582,12.624 111.714,12.544 110.573 C 12.465 109.432,12.399 110.366,12.399 112.648 M12.353 125.494 C 12.357 126.364,12.438 126.673,12.533 126.181 C 12.627 125.689,12.623 124.978,12.525 124.600 C 12.426 124.222,12.348 124.625,12.353 125.494 " stroke="none" fill="#60c4bc" fill-rule="evenodd"></path><path id="path3" d="M106.400 4.248 C 109.159 4.316,113.783 4.316,116.676 4.248 C 119.570 4.181,117.312 4.125,111.660 4.125 C 106.008 4.125,103.641 4.180,106.400 4.248 M12.361 99.605 C 12.361 100.583,12.438 100.983,12.532 100.494 C 12.626 100.005,12.626 99.205,12.532 98.715 C 12.438 98.226,12.361 98.626,12.361 99.605 M12.399 112.648 C 12.399 114.931,12.465 115.865,12.544 114.723 C 12.624 113.582,12.624 111.714,12.544 110.573 C 12.465 109.432,12.399 110.366,12.399 112.648 M12.353 125.494 C 12.357 126.364,12.438 126.673,12.533 126.181 C 12.627 125.689,12.623 124.978,12.525 124.600 C 12.426 124.222,12.348 124.625,12.353 125.494 " stroke="none" fill="#60c4bc" fill-rule="evenodd"></path><path id="path4" d="M106.400 4.248 C 109.159 4.316,113.783 4.316,116.676 4.248 C 119.570 4.181,117.312 4.125,111.660 4.125 C 106.008 4.125,103.641 4.180,106.400 4.248 M12.361 99.605 C 12.361 100.583,12.438 100.983,12.532 100.494 C 12.626 100.005,12.626 99.205,12.532 98.715 C 12.438 98.226,12.361 98.626,12.361 99.605 M12.399 112.648 C 12.399 114.931,12.465 115.865,12.544 114.723 C 12.624 113.582,12.624 111.714,12.544 110.573 C 12.465 109.432,12.399 110.366,12.399 112.648 M12.353 125.494 C 12.357 126.364,12.438 126.673,12.533 126.181 C 12.627 125.689,12.623 124.978,12.525 124.600 C 12.426 124.222,12.348 124.625,12.353 125.494 " stroke="none" fill="#60c4bc" fill-rule="evenodd"></path></g></svg>